HIERARCHY
ROOT Pelvis
{
	OFFSET 0.000000 0.000000 0.000000
	CHANNELS 6 Xposition Yposition Zposition Zrotation Yrotation Xrotation 
	JOINT Left_hip
	{
		OFFSET 0.068973 -0.091024 -0.007589
		CHANNELS 3 Zrotation Yrotation Xrotation
		JOINT Left_knee
		{
			OFFSET 0.036482 -0.391037 -0.003979
			CHANNELS 3 Zrotation Yrotation Xrotation
			JOINT Left_ankle
			{
				OFFSET -0.012239 -0.415469 -0.043440
				CHANNELS 3 Zrotation Yrotation Xrotation
				JOINT Left_foot
				{
					OFFSET 0.023806 -0.058558 0.118702
					CHANNELS 3 Zrotation Yrotation Xrotation
					End Site
					{
						OFFSET 0.000000 0.000000 0.000000
					}
				}
			}
		}
	}
	JOINT Right_hip
	{
		OFFSET -0.066552 -0.090468 -0.003847
		CHANNELS 3 Zrotation Yrotation Xrotation
		JOINT Right_knee
		{
			OFFSET -0.042435 -0.398340 -0.006400
			CHANNELS 3 Zrotation Yrotation Xrotation
			JOINT Right_ankle
			{
				OFFSET 0.014931 -0.415421 -0.041327
				CHANNELS 3 Zrotation Yrotation Xrotation
				JOINT Right_foot
				{
					OFFSET -0.021472 -0.049410 0.121889
					CHANNELS 3 Zrotation Yrotation Xrotation
					End Site
					{
						OFFSET 0.000000 0.000000 0.000000
					}
				}
			}
		}
	}
	JOINT Spine1
	{
		OFFSET -0.002904 0.105700 -0.022855
		CHANNELS 3 Zrotation Yrotation Xrotation
		JOINT Spine2
		{
			OFFSET 0.004179 0.132554 -0.002501
			CHANNELS 3 Zrotation Yrotation Xrotation
			JOINT Spine3
			{
				OFFSET 0.001987 0.049603 0.025988
				CHANNELS 3 Zrotation Yrotation Xrotation
				JOINT Neck
				{
					OFFSET -0.003935 0.211336 -0.045638
					CHANNELS 3 Zrotation Yrotation Xrotation
					JOINT Head
					{
						OFFSET 0.003906 0.065991 0.051018
						CHANNELS 3 Zrotation Yrotation Xrotation
						End Site
						{
							OFFSET 0.000000 0.000000 0.000000
						}
					}
				}
				JOINT Left_collar
				{
					OFFSET 0.072882 0.117751 -0.036270
					CHANNELS 3 Zrotation Yrotation Xrotation
					JOINT Left_shoulder
					{
						OFFSET 0.082118 0.032630 -0.005771
						CHANNELS 3 Zrotation Yrotation Xrotation
						JOINT Left_elbow
						{
							OFFSET 0.263305 -0.015144 -0.028095
							CHANNELS 3 Zrotation Yrotation Xrotation
							JOINT Left_wrist
							{
								OFFSET 0.250741 0.010115 -0.000759
								CHANNELS 3 Zrotation Yrotation Xrotation
								JOINT Left_palm
								{
									OFFSET 0.080683 -0.009989 -0.013613
									CHANNELS 3 Zrotation Yrotation Xrotation
									End Site
									{
										OFFSET 0.000000 0.000000 0.000000
									}
								}
							}
						}
					}
				}
				JOINT Right_collar
				{
					OFFSET -0.074811 0.116132 -0.040385
					CHANNELS 3 Zrotation Yrotation Xrotation
					JOINT Right_shoulder
					{
						OFFSET -0.085089 0.032943 -0.007484
						CHANNELS 3 Zrotation Yrotation Xrotation
						JOINT Right_elbow
						{
							OFFSET -0.254763 -0.014219 -0.020321
							CHANNELS 3 Zrotation Yrotation Xrotation
							JOINT Right_wrist
							{
								OFFSET -0.256597 0.009233 -0.005063
								CHANNELS 3 Zrotation Yrotation Xrotation
								JOINT Right_palm
								{
									OFFSET -0.080528 -0.007219 -0.010379
									CHANNELS 3 Zrotation Yrotation Xrotation
									End Site
									{
										OFFSET 0.000000 0.000000 0.000000
									}
								}
							}
						}
					}
				}
			}
		}
	}
}
MOTION
Frames: 15
Frame Time: 0.100000
-0.383912 0.692060 0.935290 130.142610 -53.556887 -43.476149 20.671570 18.613972 -52.072390 -5.462968 15.613138 58.547230 11.595269 20.018063 13.692195 -6.263059 -1.148527 -16.158028 -16.557248 -17.596307 -61.057873 4.786268 -15.568175 138.481500 21.830313 2.265524 15.992351 -24.357464 1.644365 -13.467464 1.598474 -2.366200 44.619494 10.232810 0.578203 12.643094 4.566154 2.851942 13.400082 -4.918530 -37.734368 40.817958 17.205703 -19.423843 -15.413957 1.768613 19.568466 22.101533 -68.400425 49.161580 -17.426133 -35.802575 -57.254860 69.639114 55.579717 -2.814769 -11.295879 -6.105985 1.364477 -0.601818 -0.655576 -1.065224 9.706817 16.991599 0.862922 -30.182820 -5.469547 16.984974 -6.025959 -48.044033 11.746312 -7.501968 6.296480 -10.997926 3.576795 
-0.382370 0.695628 0.932955 132.681202 -54.024438 -46.044872 20.668973 18.355726 -50.813313 -4.964429 15.374150 57.795740 12.886184 20.024911 15.880190 -8.840305 -1.647472 -18.273180 -16.631128 -17.629177 -62.105884 4.194564 -15.312891 139.118635 21.174692 0.643063 16.142755 -24.061323 3.566067 -13.801036 1.217784 -3.197006 45.128159 10.044081 0.157058 11.853298 3.967328 1.239473 14.498932 -4.075634 -32.334270 38.809883 16.121463 -20.483072 -15.288312 2.677673 20.603134 22.528588 -68.361712 47.501589 -16.779535 -35.480684 -54.274795 65.901148 56.839890 -3.479959 -12.058768 -7.172441 1.557373 -1.074676 1.585203 -5.735836 13.465068 35.306451 -9.172617 -19.974092 2.448756 15.310726 6.964928 -45.870370 9.355164 -13.286779 7.196439 -9.447005 4.573714 
-0.381143 0.701874 0.928219 138.536581 -55.464005 -52.379786 20.831110 17.914826 -47.771120 -4.603337 14.436282 56.983205 15.122103 20.476503 17.735666 -12.097582 -1.671708 -20.581150 -17.490554 -18.030731 -63.140954 3.304475 -14.787308 139.588362 21.845485 -1.768923 18.286277 -26.393039 2.765705 -14.864128 1.124911 -4.761359 45.353517 9.071096 -0.916537 9.690577 3.210085 -0.463162 17.166717 -5.363058 -19.279686 38.064449 11.516380 -11.676141 -12.113057 2.680814 17.987782 22.405991 -70.417749 48.293703 -17.881412 -36.401339 -51.744616 66.245977 60.751750 -1.004586 -17.462294 -8.079277 2.771904 0.893596 0.685265 -10.060839 14.603303 52.202636 -20.973029 -15.160905 12.612811 31.384390 23.555985 -49.514645 7.629145 -21.697414 11.254495 -9.555912 4.952966 
-0.376152 0.704494 0.913206 145.944480 -56.303652 -59.684955 20.920861 17.067402 -46.596966 -5.751430 13.338353 58.451223 17.284986 19.151052 15.678390 -17.299808 -0.370627 -21.416608 -17.233420 -17.647208 -62.951886 2.553695 -14.689113 139.702542 21.355247 -2.268299 16.793957 -26.012479 1.229725 -13.413171 0.049684 -5.713760 44.198110 7.972832 -2.773565 8.068524 2.278213 -1.877206 19.305568 -7.703722 -8.936225 39.423833 8.666663 -3.373407 -9.716179 1.563436 13.278112 23.045638 -71.726481 49.259585 -18.419440 -37.245430 -49.072114 67.187501 64.771714 1.686392 -22.000260 -7.464564 4.712279 3.417866 0.209299 -12.544878 14.438299 65.744532 -27.369568 -17.063116 20.892701 44.057781 38.406363 -57.704266 7.687886 -22.413837 14.888458 -10.730483 5.374680 
-0.367869 0.711024 0.891986 153.226236 -56.559784 -66.790114 21.615991 15.225460 -53.266323 -8.697809 11.790088 69.665257 17.344102 14.917034 16.478470 -20.461013 1.122664 -24.562318 -15.750551 -16.784382 -63.983020 1.541556 -14.783003 139.975899 19.537430 -3.522485 14.954715 -27.632733 -0.788570 -13.085277 -1.524787 -5.385391 46.676993 6.475960 -4.036061 5.380991 1.856610 -2.645611 20.022245 -9.619309 -6.143366 37.687958 9.470497 0.121950 -9.072756 0.567752 9.226860 23.290514 -74.569085 48.030730 -19.395855 -30.189406 -45.266297 61.180654 66.095185 3.973124 -23.963797 -5.334235 6.306934 7.649348 -0.561402 -13.269478 13.204944 73.580826 -27.226080 -20.765656 17.262563 49.235681 41.207189 -64.607278 8.938331 -17.525591 16.584432 -11.200530 6.246034 
-0.358177 0.706180 0.877529 163.209116 -56.300587 -75.722754 23.229947 10.876223 -64.076388 -14.290114 8.451408 87.994354 12.892187 7.752899 23.783248 -20.773665 2.228952 -30.894778 -14.688082 -14.976456 -63.934993 1.245594 -14.482101 140.566088 16.011049 -4.571273 10.071608 -29.504738 -1.791498 -13.610802 -1.616097 -3.762244 48.722490 3.637230 -4.086443 3.796807 1.618800 -2.195031 19.507649 -11.690566 -4.571803 37.958206 12.199720 1.441750 -8.762793 -0.929647 4.473837 21.163334 -73.458403 45.979922 -17.425230 -22.710790 -38.464208 50.798212 66.427532 4.507050 -26.614576 -5.055913 7.139591 11.348003 -2.347611 -9.496817 13.146248 78.573905 -29.670411 -20.879139 19.081244 46.685897 43.725759 -65.785563 8.806601 -20.646381 17.559053 -10.647972 7.663929 
-0.347180 0.674253 0.870814 176.078511 -53.360426 -86.969129 24.367475 4.410518 -69.114447 -20.403334 8.138256 109.180041 9.837698 3.605244 28.391975 -21.007340 2.181131 -37.302579 -14.559809 -12.614415 -60.344557 2.539630 -12.788240 141.840252 11.966168 -6.446913 -0.503556 -30.626605 -1.140314 -13.425262 -2.095691 -0.960452 45.765168 0.325305 -3.601685 5.060128 0.493331 -1.185771 17.978169 -12.943402 -3.110313 42.340502 15.192070 2.418651 -5.263292 -1.419062 3.299592 19.696858 -68.636111 42.449629 -15.179114 -15.656816 -31.579778 42.841681 65.840036 2.226038 -24.849273 -5.514883 7.412376 12.592382 -2.888842 -8.472233 13.368651 85.575129 -29.630669 -21.906315 11.911554 40.690947 38.532488 -66.806072 9.770811 -21.780131 18.849880 -9.622735 9.440992 
-0.329411 0.624672 0.864131 -171.655021 -49.005931 -94.578785 28.071041 1.870561 -62.317642 -18.802182 9.037851 128.347394 11.901642 8.286139 24.070736 -23.116997 1.713661 -39.396500 -15.691189 -10.806461 -55.933836 4.014865 -11.159157 143.002214 7.205703 -7.668127 -11.348022 -26.188732 -1.550449 -12.049108 -3.529920 1.340264 37.378177 -0.932358 -1.453525 8.525139 -1.350629 0.185616 14.502839 -9.797235 -1.987033 46.532025 15.794564 -0.335581 1.182143 -2.646623 6.414965 16.974248 -57.335001 35.983939 -9.041855 -11.145067 -18.421846 39.795708 62.969681 -2.770967 -18.725510 -3.657628 8.029452 13.305150 -0.863985 -11.379276 13.411540 88.279067 -28.992309 -22.589281 2.879770 31.979502 30.954010 -67.003705 11.000374 -20.531390 19.869606 -9.642363 12.104610 
-0.310268 0.591801 0.856928 -167.523825 -45.666663 -95.228651 26.910820 3.448686 -53.999043 -19.395103 10.534507 128.036205 13.847646 11.590764 8.525551 -22.669574 3.419212 -33.189192 -18.034551 -11.048473 -52.455173 4.520287 -9.844748 143.421721 4.949117 -8.341001 -16.896607 -21.907409 -4.350271 -9.645887 -4.462888 0.176839 33.148498 -1.368007 -3.058564 11.726403 -2.714807 -0.871750 11.258696 -8.904013 -4.809216 47.794362 15.159837 0.833779 4.506520 -12.932029 2.372769 16.567530 -53.549573 30.633378 -3.891940 -2.930411 3.789431 39.618654 51.568372 -7.672427 -5.725285 -2.890206 6.016270 9.693955 4.029909 -12.150955 10.245156 85.639799 -28.902718 -24.702830 -5.492255 26.308276 23.014105 -61.410294 14.107434 -14.575042 22.022866 -8.427622 10.909147 
-0.302536 0.580198 0.875083 -157.077468 -44.888838 -99.641889 28.035433 8.024344 -48.822476 -17.236086 11.568232 130.077482 13.021176 13.286970 -0.287184 -21.246873 4.828225 -33.315906 -19.980114 -9.010964 -58.921688 5.543509 -7.619267 145.885351 6.518355 -9.255992 -19.845571 -26.751165 -4.966341 -7.122018 -4.297122 -3.431258 34.503278 -0.749874 -5.786950 14.268194 -2.283817 -2.366306 6.908010 -13.166579 -3.249215 45.667529 13.616676 3.996175 2.820263 -20.111575 -6.274200 19.287888 -51.184430 27.667095 3.031607 -11.156641 1.187212 58.394780 14.387340 -9.150640 6.667625 -11.413080 -0.302433 -2.943732 6.400391 -8.160009 8.865158 78.121089 -29.730298 -25.848961 -12.534136 30.312922 18.556520 -37.436550 14.702113 -6.420828 31.444754 -3.411691 2.145889 
-0.303901 0.577219 0.915890 -146.668189 -44.468621 -103.115674 27.489730 11.182300 -46.204388 -14.051865 13.216134 134.956074 11.631143 15.449889 -8.190923 -19.597421 5.486587 -33.104253 -22.646671 -7.784773 -70.636630 7.840870 -5.816647 149.336361 6.648014 -8.392207 -20.326169 -27.849113 -3.826938 -7.118115 -2.232551 -8.090484 40.071285 1.313237 -7.768542 12.790524 -0.791161 -3.541711 5.009784 -18.213880 -0.070966 44.079597 11.049679 5.335309 -1.509216 -21.332245 -17.127806 19.361081 -42.277424 15.323044 5.039041 -17.081996 -9.667313 58.710328 12.304576 -11.003370 1.681477 -14.696457 -2.816111 -4.383114 5.556635 -3.168556 7.379591 69.241017 -32.229330 -26.354661 -15.375839 34.328667 14.563874 -35.203601 13.641350 -7.414888 35.031527 -0.573842 -0.339119 
-0.291624 0.582763 0.960057 -143.394032 -46.503835 -100.601931 27.596915 13.964520 -49.857875 -12.916405 14.435640 141.809067 8.271229 18.721115 -14.698178 -12.313835 4.985325 -30.084486 -23.770979 -7.603171 -79.796500 9.473218 -6.332638 153.304363 4.819833 -7.294637 -20.247733 -25.323546 -3.147163 -9.265403 -1.630743 -11.520867 47.296823 5.509127 -10.464114 12.852747 1.878671 -5.624001 3.147246 -23.321358 3.554989 42.546952 7.270361 6.112103 -7.084239 -20.773352 -22.944349 20.686683 -25.585432 4.993736 0.472134 -17.614361 -13.930001 55.539705 20.777978 -13.585472 3.517680 -13.850647 -2.923458 -2.823584 8.455664 1.402953 5.141744 52.078540 -30.887852 -22.863000 -12.982741 29.256037 12.092945 -38.519872 14.227611 -8.280938 33.614149 -1.344020 1.562000 
-0.277950 0.592541 0.993863 -142.085185 -51.165088 -96.260067 31.157452 19.014262 -57.497501 -13.617427 15.067796 148.277407 3.300804 20.275734 -17.845902 -2.348439 3.588325 -27.787690 -22.807837 -7.979747 -86.540006 9.972878 -7.956576 156.043611 1.604809 -7.138018 -20.120473 -21.565062 -1.519426 -12.280922 -2.474612 -11.982629 57.445921 8.304050 -10.439592 14.427550 4.204361 -5.613567 0.648300 -23.197249 9.040903 37.632374 2.911073 4.833294 -10.513693 -17.729563 -23.290620 17.970222 -7.988141 -2.443032 -9.865375 -13.606483 -10.719556 38.104414 19.997885 -10.733583 9.323010 -11.395238 -2.603927 -0.785158 14.506278 8.917436 6.567472 33.804181 -21.224039 -15.525521 -5.838889 6.412969 13.772707 -29.456036 10.848239 -2.635337 26.681647 -1.732944 5.570401 
-0.269961 0.589513 1.002343 -146.810948 -53.521321 -85.733102 31.018900 22.225309 -68.207170 -14.877172 17.804562 152.052841 0.093415 22.293044 -19.728099 5.585922 1.391039 -25.623489 -22.303051 -10.089343 -89.919418 10.091153 -9.276082 156.845641 4.049960 -8.522946 -20.430748 -27.811344 1.211702 -16.646871 -3.510865 -9.689021 65.506981 8.414671 -9.838041 12.716293 5.701647 -4.401906 0.534552 -24.661450 11.893512 31.367691 5.445981 4.304147 -12.676161 -13.609139 -25.117541 15.350268 8.629360 -7.229865 -20.435676 -11.065959 -14.513293 27.535736 17.426044 -8.496547 12.331610 -12.521700 -3.758799 -3.174927 18.190353 15.227731 8.406639 30.101854 -14.660099 -15.768973 -1.456064 1.947477 3.061557 -15.481833 5.857451 -15.173589 22.910284 -0.801449 8.118786 
-0.276085 0.554098 0.986072 -151.930346 -53.557975 -69.507366 29.878939 24.212591 -77.013630 -12.974285 16.855629 148.180348 1.357687 18.002893 -19.133084 2.793249 3.297101 -27.439577 -20.815467 -11.451207 -92.431360 8.674814 -8.852043 153.386776 8.054289 -8.063812 -23.755630 -35.244622 1.894637 -17.056728 -3.429992 -6.758025 69.687062 7.954779 -8.367031 6.528274 6.982759 -3.134957 1.094100 -25.243591 15.301206 26.171073 9.606804 1.727257 -15.886821 -4.179824 -26.819499 6.709796 9.210746 -14.881126 -24.573751 -7.679264 -31.105632 24.053165 14.693482 -9.188507 8.482150 -13.947292 -4.176248 -4.450762 15.737654 19.102296 6.820796 38.894127 -7.011499 -14.074571 -3.459045 6.508439 0.614220 -9.734458 5.445384 -22.990891 21.253775 1.019831 7.728154 
